<svg xmlns="http://www.w3.org/2000/svg" width="417" height="122" viewBox="0 0 417 122">
    <path fill="#FFF" fill-rule="evenodd" d="M390.843 84.858c3.903-1.31 13.232-3.692 19.153-3.692 2.195 0 4.906.446 5.983.828 0 0 1.801.521.619 1.725l-4.252 4.361c-1.245 1.286-2.658.68-2.658.68-2.59-1.076-6.55-2.91-10.581-2.91-2.622 0-10.74 1.547-14.836 3.956l-23.45 24.085h-12.31l26.752-27.48c1.782-1.83-.15-3.477-1.513-3.787v-1.108l18.12-.327v.803l-2.278 2.34c-.718.734-.636 1.172.012.95.394-.146.827-.286 1.239-.424zm-23.204-17.466c.854 1.034 1.221 2.24 1.098 3.622-.167 1.87-.986 3.404-2.456 4.603-1.472 1.2-3.033 1.713-4.684 1.54-1.202-.124-2.213-.68-3.034-1.67-.821-.987-1.17-2.172-1.047-3.554.16-1.787.94-3.326 2.344-4.615 1.402-1.287 2.93-1.847 4.582-1.675 1.276.134 2.34.718 3.197 1.75zm-56.124 14.052c-.962.988-2.02 1.36-3.992 1.4l-148.447 2.847c-1.31.026-1.039-.419.133-.89 0 0 164.684-65.95 199.2-76.153 6.806-2.014 12.367-3.65 16.173-3.65 9.277 0 2.29 9.303-4.77 16.562-2.328 2.394-58.297 59.884-58.297 59.884zm50.654.345l-37.805.734c-.603.01-.365-.505.022-.895l57.718-59.299c2.943-3.041 7.338-8.126 9.293-12.332 2.767-5.951.01-9.997-6.467-9.997-9.129 0-27.576 6.542-36.45 9.372-35.19 11.201-128.023 47.487-199.8 75.992-.005 0-.015.005-.02.011-1.13.442-1.888.534-3.112.58-.197 0-.408.005-.636.011l-137.75 2.64L0 91.492v.759l136.976-3.077c1.16-.028 1.24.35-.207.93-37.585 14.955-67.828 27.144-77.619 31.092V122h9.378c5.916-2.485 78.435-32.235 78.435-32.235 1.141-.468 3.086-.887 5.11-.932l153.489-3.45c1.797-.04 1.583.551.28 1.886L272.038 122h13.046l34.865-35.816c.718-.74 1.664-1.161 2.64-1.183l23.458-.527c1.625-.043 1.41.538.476 1.498-.203.21-27.21 27.953-27.21 27.953h12.309c.844-.861 25.785-26.464 30.545-31.35l.002-.786z"/>
</svg>
